<svg id="svg" version="1.1" xmlns="http://www.w3.org/2000/svg" xmlns:xlink="http://www.w3.org/1999/xlink" width="400" height="406.28930817610063" viewBox="0, 0, 400,406.28930817610063"><g id="svgg"><path id="path0" d="M111.950 6.150 C 109.354 6.866,108.748 7.888,108.479 11.999 C 107.831 21.918,105.578 32.504,99.448 54.443 C 96.012 66.737,92.506 81.338,91.656 86.891 L 90.111 96.987 82.477 101.257 C 71.333 107.491,63.075 113.972,49.069 127.476 C 34.727 141.304,33.995 142.496,29.123 159.956 C 21.396 187.644,18.510 197.361,13.839 211.417 C 4.745 238.781,3.785 260.175,10.662 282.214 C 13.066 289.921,16.753 303.183,18.855 311.685 C 22.953 328.262,27.757 338.517,35.030 346.211 L 39.474 350.913 37.320 355.016 C 36.134 357.273,33.987 360.970,32.547 363.232 C 23.839 376.910,20.647 403.741,28.066 400.893 C 29.378 400.390,30.238 397.495,30.831 391.591 C 31.760 382.325,35.315 373.154,41.417 364.286 C 48.627 353.806,48.165 346.712,39.820 339.787 C 36.133 336.726,28.977 319.790,25.933 306.918 C 24.215 299.654,20.790 287.297,18.323 279.457 C 11.317 257.200,11.839 245.444,21.094 216.981 C 23.568 209.371,26.867 198.333,28.424 192.453 C 40.078 148.444,40.036 148.540,53.303 135.241 C 70.312 118.190,83.375 109.266,111.950 95.177 C 113.679 94.324,115.273 92.392,115.490 90.883 C 116.093 86.712,110.941 85.973,104.426 89.296 C 101.512 90.783,98.965 91.818,98.766 91.597 C 98.386 91.175,105.438 63.164,111.850 39.623 C 113.923 32.013,115.642 23.381,115.671 20.440 C 115.766 10.670,119.794 14.960,133.235 39.151 C 137.607 47.020,143.318 57.248,145.926 61.878 C 151.143 71.141,151.103 71.698,145.227 71.698 C 140.665 71.698,137.937 74.150,139.107 77.199 C 140.041 79.634,144.285 79.796,157.817 77.914 C 165.544 76.839,169.258 76.962,177.090 78.549 C 182.426 79.631,192.170 80.469,198.742 80.412 C 216.960 80.253,233.962 84.557,233.962 89.329 C 233.962 92.872,235.841 94.340,240.378 94.340 C 242.299 94.340,242.660 93.722,242.083 91.422 C 241.465 88.961,242.117 88.158,246.248 86.295 C 251.107 84.105,262.713 73.997,267.381 67.890 C 268.718 66.142,272.358 62.746,275.472 60.343 C 278.585 57.941,285.618 52.083,291.101 47.327 C 306.093 34.323,318.476 26.877,322.526 28.432 C 330.720 31.576,335.792 48.742,337.166 77.987 L 338.319 102.516 334.621 115.723 C 332.587 122.987,329.768 134.874,328.356 142.138 C 326.944 149.403,324.829 158.297,323.656 161.905 C 321.572 168.312,321.586 168.592,324.283 173.992 C 325.802 177.033,327.044 180.770,327.044 182.297 C 327.044 184.583,327.654 185.003,330.503 184.675 C 334.787 184.182,335.751 178.797,332.815 171.769 C 331.142 167.765,331.120 166.271,332.641 160.006 C 333.599 156.059,334.894 150.566,335.519 147.799 L 336.655 142.767 340.655 150.594 C 346.638 162.301,353.452 192.152,353.343 206.178 C 353.260 216.755,353.496 217.739,358.495 227.681 C 361.376 233.412,364.557 242.122,365.564 247.038 C 366.571 251.953,369.331 261.635,371.696 268.553 C 374.062 275.472,377.742 287.913,379.875 296.200 C 385.189 316.849,389.729 324.018,394.482 319.264 C 396.413 317.334,396.379 316.892,393.998 312.996 C 392.590 310.691,389.127 299.893,386.303 288.999 C 383.479 278.106,379.805 265.937,378.138 261.955 C 376.471 257.974,374.483 250.654,373.720 245.688 C 372.763 239.465,370.573 233.170,366.669 225.431 C 361.155 214.496,361.006 213.891,361.006 202.376 C 361.006 195.871,360.425 188.572,359.715 186.155 C 359.005 183.738,357.247 176.384,355.808 169.811 C 353.110 157.486,348.841 146.712,342.985 137.446 C 338.891 130.967,338.819 128.459,342.453 118.824 C 346.026 109.352,346.132 60.279,342.606 47.852 C 332.958 13.847,317.098 12.088,284.910 41.451 C 279.946 45.980,272.966 51.934,269.400 54.683 C 265.835 57.431,261.211 62.055,259.126 64.958 C 250.014 77.647,244.454 79.626,228.302 75.928 C 223.459 74.819,211.289 73.469,201.258 72.926 C 164.475 70.938,158.883 68.442,148.433 49.347 C 135.295 25.340,129.256 15.649,124.151 10.377 C 118.936 4.993,117.698 4.564,111.950 6.150 M308.132 37.683 C 295.447 44.391,282.147 60.545,276.805 75.732 C 271.858 89.796,268.018 96.868,264.470 98.447 C 262.565 99.295,259.975 101.265,258.714 102.825 C 255.577 106.704,252.180 106.381,248.858 101.887 C 245.575 97.447,244.025 97.090,244.025 100.774 C 244.025 102.237,246.006 105.249,248.428 107.467 C 251.416 110.204,252.830 112.612,252.830 114.961 C 252.830 121.619,264.704 132.959,280.550 141.436 C 288.234 145.546,295.754 150.490,297.261 152.421 C 298.767 154.353,301.342 157.671,302.982 159.795 C 310.117 169.036,313.759 161.513,306.999 151.497 C 304.981 148.507,303.724 145.885,304.206 145.671 C 306.977 144.444,319.917 125.417,325.818 113.894 L 332.704 100.446 332.704 84.500 C 332.704 45.583,324.120 29.228,308.132 37.683 M320.781 42.453 C 327.788 48.765,332.698 86.590,328.271 100.145 C 326.073 106.872,315.002 126.381,309.191 133.764 C 306.555 137.114,303.934 140.683,303.368 141.695 C 302.505 143.238,287.440 136.815,281.924 132.552 C 278.140 129.628,287.909 115.854,297.057 111.219 C 303.231 108.090,304.951 104.956,300.943 104.137 C 299.376 103.817,300.463 102.669,304.717 100.152 C 311.716 96.010,312.275 93.597,306.604 92.008 L 302.516 90.862 307.890 89.920 C 317.143 88.297,315.754 83.458,305.646 82.103 L 300.253 81.379 304.955 78.967 C 307.541 77.640,311.305 76.508,313.319 76.451 C 316.928 76.348,318.301 73.920,315.670 72.294 C 312.864 70.560,290.459 79.670,290.841 82.390 C 291.132 84.461,292.418 85.022,298.113 85.564 L 305.031 86.222 296.408 89.023 C 291.666 90.564,286.996 91.824,286.031 91.824 C 285.066 91.824,284.277 92.726,284.277 93.829 C 284.277 95.497,285.279 95.696,290.254 95.012 C 304.224 93.090,302.391 100.335,287.960 104.074 C 282.030 105.611,281.699 108.176,287.432 108.176 L 292.055 108.176 286.351 113.719 C 282.432 117.528,280.095 121.157,278.883 125.315 L 277.118 131.366 269.377 123.982 C 259.191 114.266,258.127 106.243,266.462 101.991 C 271.503 99.419,271.930 98.633,280.058 76.961 C 284.012 66.418,291.258 55.996,299.458 49.057 C 312.687 37.861,314.918 37.170,320.781 42.453 M78.739 150.823 C 70.306 153.744,65.409 159.708,65.409 167.058 C 65.409 177.312,73.278 188.679,80.376 188.679 L 84.270 188.679 75.783 197.131 C 71.115 201.780,64.734 206.861,61.604 208.423 C 49.628 214.399,36.478 229.025,36.478 236.369 C 36.478 237.747,35.835 240.287,35.049 242.012 C 33.073 246.348,35.479 265.341,38.262 267.376 C 39.356 268.176,40.252 269.352,40.252 269.989 C 40.252 270.627,43.648 274.509,47.799 278.616 C 54.160 284.912,55.350 286.783,55.374 290.527 C 55.432 299.993,67.047 317.073,76.814 322.055 C 90.355 328.964,149.686 327.543,149.686 320.311 C 149.686 316.225,146.441 315.467,134.967 316.875 C 93.230 321.993,76.731 317.537,66.271 298.318 C 62.277 290.981,62.974 290.485,71.698 294.456 C 78.735 297.659,88.059 298.871,91.500 297.029 C 93.482 295.968,96.841 296.228,105.763 298.135 C 112.181 299.507,119.790 300.629,122.672 300.629 C 126.315 300.629,128.606 301.396,130.189 303.145 C 131.441 304.528,133.510 305.660,134.786 305.660 C 137.409 305.660,137.930 303.656,135.535 302.778 C 131.823 301.417,137.283 299.182,146.670 298.219 C 163.560 296.486,172.536 293.384,172.078 289.438 C 171.590 285.230,166.748 284.611,154.961 287.251 C 135.140 291.690,102.708 290.267,81.511 284.029 C 74.734 282.034,67.380 261.999,74.067 263.748 C 81.636 265.727,106.438 246.118,109.251 235.931 C 112.371 224.630,98.880 210.608,82.296 207.917 L 77.875 207.200 80.614 204.284 C 82.120 202.681,83.985 201.486,84.758 201.628 C 85.531 201.770,86.028 201.196,85.861 200.351 C 85.695 199.507,87.645 197.399,90.195 195.666 C 95.302 192.196,105.448 179.434,106.250 175.472 C 110.274 155.608,97.630 144.280,78.739 150.823 M91.195 153.459 C 91.647 154.190,90.492 154.680,88.439 154.629 C 85.066 154.544,85.448 154.030,90.177 152.290 C 90.309 152.241,90.767 152.767,91.195 153.459 M81.492 156.670 C 79.178 157.926,77.601 160.240,76.598 163.853 C 75.783 166.784,74.436 171.353,73.604 174.007 L 72.092 178.831 70.681 175.264 C 66.859 165.610,68.928 159.443,76.966 156.528 C 82.863 154.389,85.540 154.473,81.492 156.670 M177.547 167.292 C 167.980 170.733,165.054 173.921,162.143 184.070 C 158.774 195.819,189.376 209.023,199.194 200.056 C 200.675 198.704,204.394 195.732,207.459 193.453 C 226.746 179.106,202.836 158.194,177.547 167.292 M193.082 171.069 C 193.545 171.819,192.178 172.276,189.697 172.202 C 185.784 172.084,185.723 172.016,188.679 171.069 C 190.409 170.515,191.932 170.006,192.064 169.937 C 192.196 169.868,192.654 170.377,193.082 171.069 M181.694 175.786 C 179.489 180.013,179.469 184.091,181.622 190.119 L 183.260 194.702 179.695 193.460 C 170.264 190.172,173.259 172.410,183.259 172.329 C 183.391 172.328,182.687 173.884,181.694 175.786 M85.095 179.306 C 84.034 180.460,83.198 180.512,81.962 179.500 C 80.577 178.366,80.676 177.827,82.517 176.481 C 85.242 174.489,87.376 176.826,85.095 179.306 M190.584 190.967 C 189.458 192.093,186.164 192.336,186.164 191.293 C 186.164 189.609,187.631 188.839,189.485 189.550 C 190.485 189.934,190.980 190.572,190.584 190.967 M89.030 218.836 C 102.452 225.815,104.558 230.491,92.696 226.976 C 89.795 226.116,81.761 224.464,74.843 223.304 C 56.269 220.189,54.785 218.341,69.182 216.252 C 79.465 214.760,81.765 215.059,89.030 218.836 M71.384 225.797 C 73.190 226.222,74.214 227.403,74.214 229.060 C 74.214 230.606,74.850 231.423,75.786 231.080 C 76.651 230.763,77.217 229.866,77.044 229.088 C 76.631 227.232,80.151 227.245,80.770 229.102 C 81.116 230.142,81.937 230.100,83.777 228.951 C 85.925 227.610,87.392 227.883,93.469 230.758 C 101.375 234.498,101.829 235.532,97.754 240.505 L 94.969 243.903 94.778 240.674 C 94.503 236.018,91.636 233.774,85.004 233.026 C 76.181 232.032,71.760 236.620,76.415 241.941 C 77.626 243.325,77.854 244.010,76.923 243.463 C 75.707 242.749,75.366 243.131,75.713 244.820 C 75.979 246.112,77.166 247.091,78.350 246.995 C 80.841 246.793,81.251 248.545,78.931 249.481 C 77.992 249.860,78.245 250.156,79.560 250.215 C 82.485 250.347,82.346 251.860,79.230 253.806 C 73.551 257.352,67.974 253.644,67.944 246.301 C 67.933 243.747,67.309 241.278,66.557 240.813 C 64.408 239.485,62.496 242.278,62.618 246.569 C 62.718 250.059,62.500 250.306,60.627 248.828 C 55.603 244.867,55.560 244.776,57.207 241.509 C 58.079 239.780,59.067 235.252,59.404 231.447 C 59.741 227.642,59.787 225.176,59.507 225.967 C 58.966 227.499,54.088 226.779,54.088 225.167 C 54.088 224.177,66.405 224.626,71.384 225.797 M44.698 242.906 C 45.945 246.834,53.713 254.974,59.108 258.006 C 63.490 260.469,63.838 261.090,63.964 266.657 C 64.038 269.956,64.692 274.217,65.418 276.125 C 67.955 282.797,61.650 280.725,52.843 271.992 C 44.954 264.171,42.516 259.050,41.780 248.752 C 41.178 240.338,42.832 237.025,44.698 242.906 M48.293 257.336 C 48.713 258.430,49.057 259.562,49.057 259.851 C 49.057 260.141,49.906 260.377,50.943 260.377 C 51.981 260.377,52.830 261.038,52.830 261.845 C 52.830 262.652,53.169 262.974,53.583 262.560 C 54.477 261.665,50.162 255.442,48.608 255.385 C 48.015 255.364,47.873 256.241,48.293 257.336 M87.287 264.883 C 87.707 265.977,88.050 267.109,88.050 267.398 C 88.050 267.688,88.904 267.925,89.948 267.925 C 91.530 267.925,91.584 267.507,90.274 265.409 C 88.410 262.423,86.193 262.033,87.287 264.883 M56.840 265.487 C 57.142 266.395,58.133 267.386,59.041 267.689 C 59.984 268.003,60.456 267.531,60.142 266.588 C 59.839 265.680,58.848 264.689,57.940 264.387 C 56.997 264.072,56.525 264.544,56.840 265.487 M112.007 267.817 C 111.034 269.636,111.015 270.440,111.945 270.440 C 113.470 270.440,115.131 266.913,114.094 265.876 C 113.718 265.500,112.780 266.374,112.007 267.817 M122.013 267.925 C 120.149 269.129,121.589 269.845,124.843 269.331 C 125.362 269.249,125.786 269.782,125.786 270.514 C 125.786 271.247,126.357 271.494,127.054 271.063 C 127.846 270.574,127.644 269.603,126.515 268.473 C 124.391 266.349,124.441 266.355,122.013 267.925 M127.883 277.568 C 126.355 279.096,127.013 280.436,128.931 279.700 C 129.969 279.302,130.818 278.471,130.818 277.853 C 130.818 276.534,129.085 276.366,127.883 277.568 M82.390 293.082 L 84.906 294.163 82.390 294.163 C 81.006 294.163,78.742 293.676,77.358 293.082 L 74.843 292.001 77.358 292.001 C 78.742 292.001,81.006 292.487,82.390 293.082 " stroke="none" fill="#e6e6e6" fill-rule="evenodd"></path></g></svg>