<svg id="visual" viewBox="0 0 900 675" width="900" height="675" xmlns="http://www.w3.org/2000/svg" xmlns:xlink="http://www.w3.org/1999/xlink" version="1.1"><rect x="0" y="0" width="900" height="675" fill="#202020"></rect><g transform="translate(438.9916912500732 318.70490371625175)"><path d="M155.7 -162.6C211.1 -139 271.7 -98.8 279.1 -50.2C286.5 -1.6 240.7 55.5 197.4 98.4C154.1 141.4 113.3 170.3 65.6 193.4C17.9 216.4 -36.7 233.7 -86 222C-135.4 210.3 -179.4 169.6 -213.1 119.2C-246.8 68.8 -270.1 8.5 -251 -34.5C-231.8 -77.6 -170.1 -103.4 -121.2 -128.1C-72.3 -152.9 -36.2 -176.4 7 -184.8C50.1 -193.1 100.3 -186.2 155.7 -162.6" fill="#5e85ff"></path></g></svg>