<svg id="visual" viewBox="0 0 900 675" width="900" height="675" xmlns="http://www.w3.org/2000/svg" xmlns:xlink="http://www.w3.org/1999/xlink" version="1.1"><rect x="0" y="0" width="900" height="675" fill="#202020"></rect><g transform="translate(477.3107687309574 297.0789951330553)"><path d="M155.3 -175.2C194.8 -151.8 216.1 -96.8 214.3 -46.7C212.5 3.4 187.7 48.7 162.2 94.5C136.8 140.3 110.8 186.7 64.8 222.9C18.8 259 -47.2 285 -89.5 262.4C-131.8 239.9 -150.3 168.7 -186.8 107.1C-223.4 45.5 -277.9 -6.6 -267.8 -44.4C-257.7 -82.2 -183.1 -105.7 -127.7 -126.3C-72.3 -146.9 -36.2 -164.4 10.8 -177.4C57.9 -190.3 115.7 -198.6 155.3 -175.2" fill="#5e85ff"></path></g></svg>