<?xml version="1.0" encoding="UTF-8" standalone="no"?>
<svg
   xmlns:dc="http://purl.org/dc/elements/1.1/"
   xmlns:cc="http://creativecommons.org/ns#"
   xmlns:rdf="http://www.w3.org/1999/02/22-rdf-syntax-ns#"
   xmlns:svg="http://www.w3.org/2000/svg"
   xmlns="http://www.w3.org/2000/svg"
   width="1920px"
   height="1080px"
   viewBox="0 0 1920 1080"
   version="1.1"
   id="SVGRoot">
  <defs
     id="defs18">
    <filter
       style="color-interpolation-filters:sRGB"
       id="filter304"
       x="-0.015386469"
       width="1.0307729"
       y="-0.022543934"
       height="1.0450879">
      <feGaussianBlur
         stdDeviation="1.6366828"
         id="feGaussianBlur306" />
    </filter>
    <filter
       style="color-interpolation-filters:sRGB"
       id="filter372"
       x="-0.0017421587"
       width="1.0034843"
       y="-0.0015600637"
       height="1.0031201">
      <feGaussianBlur
         stdDeviation="0.4662395"
         id="feGaussianBlur374" />
    </filter>
    <filter
       style="color-interpolation-filters:sRGB"
       id="filter576"
       x="-0.00015455815"
       width="1.0003091"
       y="-0.00022396701"
       height="1.0004479">
      <feGaussianBlur
         stdDeviation="0.032691574"
         id="feGaussianBlur578" />
    </filter>
  </defs>
  <metadata
     id="metadata21">
    <rdf:RDF>
      <cc:Work
         rdf:about="">
        <dc:format>image/svg+xml</dc:format>
        <dc:type
           rdf:resource="http://purl.org/dc/dcmitype/StillImage" />
        <dc:title></dc:title>
      </cc:Work>
    </rdf:RDF>
  </metadata>
  <g
     id="layer4"
     style="display:none;filter:url(#filter304)">
    <path
       style="fill:#5599ff;stroke:#2a7fff"
       id="path58"
       d="m 977.89578,171.39033 c -10.2884,6.51253 -20.2344,13.764 -28.352,22.92477 -2.1835,2.46411 -4.0935,5.15771 -6.1402,7.73657 -1.2071,3.01696 -3.2387,5.82399 -3.6212,9.05087 -1.2785,10.78655 4.0465,17.12983 11.6771,24.61979 6.1918,6.07763 13.1555,11.3554 20.2318,16.37557 26.668,18.91922 45.46612,27.79321 75.33222,44.10109 51.8147,24.70208 -46.5491,-26.90267 6.6294,-4.59013 17.5979,7.38365 35.3063,14.50996 53.1218,21.35147 37.3155,14.3298 51.5283,18.64808 88.0207,30.79766 l 0.089,-0.0602 v 0 c 0,0 -50.7054,-16.46767 -88.0203,-30.79713 -17.8156,-6.84141 -35.5239,-13.96765 -53.1217,-21.35121 -53.1775,-22.3119 45.0948,29.35081 -6.7189,4.64954 -31.8824,-17.4085 -47.09492,-23.8854 -74.28862,-44.75201 -6.7558,-5.18395 -13.2646,-10.77934 -19.0169,-17.05825 -6.9769,-7.61548 -11.8729,-14.48179 -10.4823,-24.88184 0.4265,-3.19001 2.4291,-5.96086 3.6437,-8.9413 2.0413,-2.56152 3.9382,-5.24526 6.1241,-7.68458 8.4641,-9.44516 18.9134,-16.77652 29.6644,-23.3623 l -4.7718,1.87157 z" />
  </g>
  <g
     id="layer1"
     style="display:none;filter:url(#filter372)">
    <path
       style="fill:#5599ff;stroke:#2a7fff"
       id="path35"
       d="m 986.74768,168.94817 c -79.8775,12.10055 -159.89127,23.14179 -240.13788,32.4869 -9.90204,1.07393 -19.80731,2.11848 -29.70611,3.22178 -26.35048,2.93696 -62.48121,4.86809 -78.75343,31.02377 -4.0008,6.43082 9.47708,11.99428 15.42474,16.68332 11.52984,9.08995 24.45052,16.26128 36.67578,24.39192 80.29638,49.03478 158.4943,101.32126 234.5231,156.73764 26.6743,19.44247 53.2387,39.0528 79.23992,59.38649 60.8454,47.58279 74.4774,61.22491 130.1057,110.80633 29.0618,29.56036 58.4163,57.09841 83.2811,90.38233 17.8313,23.8689 33.1949,44.3648 28.6677,76.02661 -5.5499,38.81422 -25.7891,46.65829 -53.5839,71.04676 -35.5655,9.25923 -68.9868,18.63289 -106.3418,22.93926 -48.5869,5.6012 -105.56472,3.84512 -153.89812,-4.13313 -22.7258,-3.75127 -45.5367,-8.35779 -67.1354,-16.35981 -20.1586,-7.46852 -38.15832,-19.81253 -57.2375,-29.71879 -41.59796,-41.63897 -46.23052,-39.13778 -71.60257,-91.48043 -7.26888,-14.99573 -11.70788,-31.20513 -17.56182,-46.8077 l -31.394,17.48245 v 0 c 6.21201,15.63117 11.06731,31.87229 18.63602,46.89352 26.71274,53.01539 30.84411,50.08061 73.57911,92.50422 19.40341,10.01312 37.70947,22.52447 58.21026,30.03936 40.1034,14.70053 101.9541,22.12578 143.714,23.43596 42.13192,1.32185 112.17022,-1.86814 153.12882,-15.73719 31.7247,-10.74235 60.6801,-28.37846 91.0202,-42.56769 28.2903,-25.98351 49.0813,-34.4631 53.6087,-75.01767 3.6149,-32.3805 -12.8341,-53.07541 -31.6694,-76.74522 -24.8207,-31.1914 -58.1717,-61.59228 -86.3617,-89.01613 -54.9333,-47.07604 -73.3855,-64.03903 -132.4997,-109.58304 -38.29942,-29.50746 -124.16742,-91.66604 -163.10312,-119.1723 -26.4734,-18.70223 -53.28707,-36.91807 -79.9306,-55.3771 -21.41345,-15.26077 -42.82689,-30.52153 -64.24034,-45.78229 -11.16682,-8.48985 -16.89166,-10.58357 -27.69209,-19.53488 -4.10414,-3.40148 -3.73514,-3.08509 -5.73916,-4.43901 -1.32286,-0.89373 -4.64019,-0.90757 -4.13237,-2.42112 0,0 14.14301,-3.722 19.30104,-4.65457 8.3042,-1.50139 7.97823,-1.30295 13.30278,-1.97099 79.01151,-10.15696 157.88014,-21.56485 237.08294,-30.1318 z" />
  </g>
  <g
     id="layer2"
     style="display:inline;filter:url(#filter576)">
    <path
       style="fill:#5599ff;stroke:#2a7fff"
       id="path40"
       d="m 687.31319,693.06387 c 45.05933,-22.27267 104.88233,-50.35127 145.42012,-80.07208 10.06807,-7.3815 19.81247,-15.19456 29.71867,-22.79184 25.3581,-20.70901 50.5101,-42.0443 72.1311,-66.7547 11.7686,-13.45023 21.893,-27.67248 31.7357,-42.5457 4.3452,-6.56599 8.3816,-13.33119 12.5724,-19.99678 15.7374,-24.99054 31.32152,-50.72198 53.24272,-70.91257 11.8343,-10.90004 15.0441,-12.09804 28.2749,-20.38517 2.2631,-0.6908 4.5012,-1.46969 6.7893,-2.07239 5.1463,-1.35558 10.2636,-2.88807 15.5067,-3.8005 11.3109,-1.96838 21.1819,-1.88413 32.6116,-2.16968 5.5912,-0.13968 11.2003,0.0846 16.7746,-0.37145 6.395,-0.52312 12.7186,-1.70759 19.0779,-2.56139 25.6346,-6.32437 13.182,-2.65471 37.3881,-10.90558 l 6.3954,-4.97863 v 0 c -24.2209,8.42252 -11.7936,4.71183 -37.3072,11.04748 -6.2554,0.81472 -12.4773,1.9504 -18.7661,2.44417 -5.5652,0.43694 -11.1624,0.22034 -16.7433,0.34383 -5.4879,0.12143 -10.984,0.0576 -16.4632,0.39091 -9.1659,0.55749 -23.005,1.89124 -31.7432,5.22591 -7.4129,2.82893 -14.2541,6.97406 -21.3811,10.4611 -13.0421,8.32708 -16.1251,9.48723 -27.768,20.39278 -4.8338,4.52773 -9.4364,9.31855 -13.7403,14.35267 -4.5987,5.37876 -8.788,11.10041 -12.92782,16.83973 -9.9602,13.80825 -16.9223,25.27007 -26.0607,39.67544 -9.8535,15.86687 -15.4646,25.59297 -26.7292,40.78909 -5.4025,7.28803 -10.9761,14.46394 -16.9209,21.31676 -21.2747,24.52408 -45.9772,45.79311 -71.0953,66.22693 -9.9648,7.61162 -19.7676,15.44018 -29.8944,22.83486 -9.7801,7.14151 -19.74433,14.0331 -29.81195,20.76321 -27.57392,18.4329 -74.52869,37.61729 -104.65333,51.57405 z" />
  </g>
</svg>
